HIERARCHY
ROOT pelvis
{
	OFFSET 0.000000 0.000000 0.000000
	CHANNELS 6 Xposition Yposition Zposition Zrotation Xrotation Yrotation
	JOINT lfemur
	{
		OFFSET 11.446000 0.000000 0.000000
		CHANNELS 3 Zrotation Xrotation Yrotation
		JOINT ltibia
		{
			OFFSET 0.000000 -42.030400 0.000000
			CHANNELS 3 Zrotation Xrotation Yrotation
			JOINT lfoot
			{
				OFFSET 0.000000 -39.930200 0.000000
				CHANNELS 3 Zrotation Xrotation Yrotation
				JOINT ltoes
				{
					OFFSET 0.000000 0.000000 11.775800
					CHANNELS 3 Zrotation Xrotation Yrotation
					End Site
					{
					    OFFSET 0.000000 0.000000 5.000000
					}
				}
			}
		}
	}
	JOINT rfemur
	{
		OFFSET -11.446000 0.000000 0.000000
		CHANNELS 3 Zrotation Xrotation Yrotation
		JOINT rtibia
		{
			OFFSET 0.000000 -42.030400 0.000000
			CHANNELS 3 Zrotation Xrotation Yrotation
			JOINT rfoot
			{
				OFFSET 0.000000 -39.930200 0.000000
				CHANNELS 3 Zrotation Xrotation Yrotation
				JOINT rtoes
				{
					OFFSET 0.000000 0.000000 11.775800
					CHANNELS 3 Zrotation Xrotation Yrotation
					End Site
					{
					    OFFSET 0.000000 0.000000 5.000000
					}
				}
			}
		}
	}
	JOINT thorax
	{
		OFFSET 0.000000 11.255600 -5.000000
		CHANNELS 3 Zrotation Xrotation Yrotation
		JOINT head
		{
			OFFSET 0.000000 43.799300 0.000000
			CHANNELS 3 Zrotation Xrotation Yrotation
			End Site
			{
			    OFFSET 0.000000 5.000000 0.000000
			}
		}
		JOINT lclavicle
		{
			OFFSET 0.000000 39.863000 0.000000
			CHANNELS 3 Zrotation Xrotation Yrotation
			JOINT lhumerus
			{
				OFFSET 17.380600 4.958300 0.000000
				CHANNELS 3 Zrotation Xrotation Yrotation
				JOINT lradius
				{
					OFFSET 0.000000 -27.561300 0.000000
					CHANNELS 3 Zrotation Xrotation Yrotation
					JOINT lhand
					{
						OFFSET 0.000000 -26.933000 0.000000
						CHANNELS 3 Zrotation Xrotation Yrotation
						End Site
						{
						    OFFSET 0.000000 -5.000000 0.000000
						}
					}
				}
			}
		}
		JOINT rclavicle
		{
			OFFSET 0.000000 39.863000 0.000000
			CHANNELS 3 Zrotation Xrotation Yrotation
			JOINT rhumerus
			{
				OFFSET -17.380600 4.958300 0.000000
				CHANNELS 3 Zrotation Xrotation Yrotation
				JOINT rradius
				{
					OFFSET 0.000000 -27.561300 0.000000
					CHANNELS 3 Zrotation Xrotation Yrotation
					JOINT rhand
					{
						OFFSET 0.000000 -26.933000 0.000000
						CHANNELS 3 Zrotation Xrotation Yrotation
						End Site
						{
						    OFFSET 0.000000 -5.000000 0.000000
						}
					}
				}
			}
		}
	}
}
MOTION
Frames:	18
Frame Time:	0.0333333
75.9729 84.9282 -159.594 -0.827606 -2.29962 8.32766 1.2962 -1.08627 -2.28518 1.33705 65.5918 -0.939934 7.94117 13.1751 -18.7518 -7.60356e-016 -5 3.99088e-016 7.58888 -20.5168 3.10025 -0.177497 31.6344 0.342487 -1.6803 4.47275 -3.19114 -0 -5 -0 3.31911 7.88434 -4.59297 2.85124 -6.19121 -10.2448 2.98177e-016 7.95139e-016 -1.59028e-015 11.7707 -10.0614 -19.53 16.7844 -24.731 7.37944 -0.0171881 -0.506992 -3.61224 2.98177e-016 7.95139e-016 -1.59028e-015 -2.95784 6.80872 -8.03576 -10.0613 -15.9713 -3.71918 0.725583 -3.33626 24.5037 
76.1804 85.4153 -154.157 -0.884798 -2.21767 6.54012 1.86315 -7.43465 0.591245 1.86017 70.3476 -1.65447 4.03482 7.76145 -10.7916 2.21132e-016 -5 1.39681e-015 8.08084 -16.7715 2.94802 -0.174336 31.4833 0.258922 -2.96305 1.18637 -2.80709 1.33184e-015 -5 1.59635e-015 3.23037 8.29807 -2.86192 2.94376 -6.01211 -10.2239 -4.96962e-017 0 -7.95139e-016 11.0506 -9.15253 -18.841 16.4262 -24.3066 7.16585 -0.0860437 -1.16553 -8.32644 -4.96962e-017 0 -7.95139e-016 -4.18627 4.03277 -4.17662 -10.6765 -16.8429 -4.02055 0.671163 -3.21399 23.5494 
76.0522 85.7694 -148.574 -1.8578 -2.17244 7.11204 3.74567 -14.6426 1.55336 2.06652 71.7623 -2.00052 1.90275 0.691582 -5.087 -7.95139e-016 -5 -0 9.81197 -12.3343 2.84607 -0.159039 30.2257 0.169192 -3.81818 -1.24919 -4.82152 -1.29219e-016 -5 7.98176e-016 3.84342 7.84705 -2.7483 3.13726 -5.59658 -10.7148 -1.98785e-016 2.38542e-015 7.95139e-016 10.8762 -7.41128 -20.135 15.3045 -22.9466 6.50924 -0.120535 -1.38045 -9.87583 -1.98785e-016 2.38542e-015 7.95139e-016 -5.01475 1.55807 0.610045 -11.9269 -18.571 -4.65566 0.454179 -2.66159 19.3161 
76.2524 85.5261 -143.097 -2.54385 -2.09362 5.66279 4.95604 -20.8315 3.34074 1.82831 70.1261 -1.79039 1.27707 -2.95331 0.321419 6.95656e-017 -5 7.98176e-016 11.1539 -8.48109 3.72656 -0.152075 29.6275 0.105853 -4.2563 -4.31668 -6.38591 -3.97569e-016 -5 -0 4.63831 8.08599 -1.29349 2.67136 -5.71567 -10.2379 -1.98785e-016 0 -7.95139e-016 10.4016 -5.74688 -22.2058 15.0704 -22.6567 6.37473 -0.0984013 -1.24671 -8.9107 -1.98785e-016 0 -7.95139e-016 -6.69135 -1.19597 6.46404 -14.0599 -21.3844 -5.80408 0.216957 -1.8513 13.2961 
76.401 84.9987 -137.641 -3.633 -1.96968 4.80625 6.67859 -26.4175 4.33082 1.32677 65.468 -1.30297 1.28334 -4.09773 3.97161 -5.56525e-016 -5 -6.38541e-015 13.1439 -3.415 4.58582 -0.13226 27.3082 -0.124346 -6.50313 -6.12409 -10.1041 -6.46095e-017 -5 3.99088e-016 5.9213 8.51088 -0.350394 1.75516 -6.63531 -10.6954 -2.98177e-016 0 -0 9.85983 -4.48947 -23.9158 14.7167 -22.2148 6.17302 -0.0631391 -0.996705 -7.11334 -2.98177e-016 0 -0 -8.52886 -4.20956 11.4353 -16.3225 -24.1836 -7.10445 0.110594 -1.32183 9.45193 
76.7526 84.4422 -132.114 -4.2265 -1.53391 4.57774 7.56041 -30.9874 4.33757 0.803114 57.2617 -0.828874 1.47135 -4.3718 6.67532 1.59028e-015 -5 -0 14.2835 1.35979 4.66817 -0.110328 24.7479 -0.169588 -6.7915 -8.04508 -12.7595 -3.10601e-018 -5 -0 6.76643 8.51603 0.0386351 1.61389 -6.88052 -10.2797 4.96962e-016 0 7.95139e-016 9.24657 -3.18991 -24.3746 14.2224 -21.5899 5.8946 -0.0565799 -0.942853 -6.726 4.96962e-016 0 7.95139e-016 -10.4175 -6.54229 15.7265 -19.8396 -28.1631 -9.27417 0.0429464 -0.817718 5.83179 
77.2958 84.0737 -126.62 -4.18467 -0.359577 4.04297 7.2407 -33.712 1.99789 0.414414 45.7515 -0.535147 1.40436 -2.54808 8.00506 3.97569e-016 -5 -0 14.0215 6.10037 5.07195 -0.0860572 20.6948 -0.149306 -6.86338 -8.73581 -13.4813 9.93923e-017 -5 -0 6.84041 7.43665 1.05884 1.33443 -6.61021 -10.151 4.96962e-016 0 -7.95139e-016 8.66186 -1.87176 -23.6081 13.5847 -20.7704 5.54127 -0.0828382 -1.14328 -8.16538 4.96962e-016 0 -7.95139e-016 -12.1179 -8.10298 17.5764 -23.1418 -31.5056 -11.4528 0.0234167 -0.599045 4.26862 
77.8483 83.4904 -120.973 -4.13824 0.612406 3.46139 6.71088 -34.981 -2.51659 0.163661 31.1469 -0.316765 0.297696 4.62345 10.2839 8.15053e-016 -5 -3.1927e-015 13.4782 10.2978 5.48258 -0.0747244 17.9895 -0.138447 -6.86211 -9.16245 -12.8191 -8.07619e-018 -5 4.9886e-017 7.07321 6.88245 1.77985 1.07973 -6.41242 -9.48885 -4.96962e-016 3.18055e-015 -7.95139e-016 7.79465 -1.50853 -19.2596 12.0103 -18.6822 4.69871 -0.145516 -1.5182 -10.8698 -4.96962e-016 3.18055e-015 -7.95139e-016 -13.4429 -9.66737 17.7328 -26.5517 -34.5848 -13.8234 0.00564238 -0.277116 1.97306 
78.4227 82.4523 -115.034 -4.03303 1.32842 2.20799 6.90483 -36.1854 -6.30807 0.0754958 21.8856 -0.299379 0.470808 2.75543 15.1552 -1.45115e-015 -5 1.59635e-015 12.6905 14.2213 5.93881 -0.0690722 17.4206 -0.207247 -6.51187 -10.1589 -12.0885 1.02501e-017 -5 -2.4943e-017 7.17678 5.44932 3.10678 1.60697 -4.99985 -8.66949 -7.95139e-016 -2.38542e-015 -1.59028e-015 6.95656 0.325057 -13.0586 10.4329 -16.4983 3.8999 -0.238881 -1.9428 -13.9663 -7.95139e-016 -2.38542e-015 -1.59028e-015 -14.0521 -9.18438 16.4114 -30.0504 -37.384 -16.3635 0.000660956 0.0146397 -0.10601 
79.0571 81.9765 -109.204 -3.30123 1.18795 2.29619 6.15206 -36.6126 -6.0878 0.0687226 20.7273 -0.320212 0.672336 -0.151549 14.855 3.97569e-016 -5 -0 11.5817 18.7486 5.84083 -0.0685535 16.46 -0.138441 -6.32081 -8.44913 -10.7243 6.46095e-017 -5 -3.99088e-016 6.4948 5.3195 3.49704 0.399004 -5.41557 -10.2117 -1.49089e-015 2.38542e-015 -0 6.6671 1.46484 -7.64084 9.39336 -15.0089 3.39979 -0.332243 -2.28609 -16.4995 -1.49089e-015 2.38542e-015 -0 -14.158 -9.08898 13.9812 -31.7651 -38.6335 -17.6431 0.0100303 0.28035 -1.99793 
79.6648 81.3903 -103.255 -2.31556 0.448978 3.99812 4.93721 -36.0475 -0.515882 0.0887042 23.929 -0.135728 -2.27111 3.57655 5.96891 -0 -5 -0 11.3213 20.1529 4.26411 -0.103432 22.5202 -0.0958481 -6.37536 -6.88624 -9.21064 -0 -5 -0 5.43233 5.08161 2.40729 1.80621 -3.9299 -9.41463 9.93923e-017 1.59028e-015 1.59028e-015 6.90644 2.16675 -1.04585 7.77262 -12.6112 2.66457 -0.619645 -3.09463 -22.6214 9.93923e-017 1.59028e-015 1.59028e-015 -13.5668 -7.87303 11.2525 -32.5778 -39.1992 -18.2567 0.0212691 0.419126 -2.98596 
80.5073 81.5819 -97.1042 -0.896434 -0.298389 4.51247 3.171 -33.982 -0.473877 0.125183 26.5998 -0.252346 1.47005 9.95329 -2.70821 -3.50362e-016 -5 3.99088e-016 9.91948 18.055 2.59938 -0.225575 34.3116 0.219245 -6.74008 -1.07155 -4.98923 -1.65984e-015 -5 -7.98176e-016 4.10966 5.40155 2.32479 2.08063 -2.93808 -9.75548 9.93923e-017 -7.95139e-016 -7.95139e-016 7.24153 2.14635 2.94089 6.74631 -11.0452 2.22846 -0.916858 -3.72825 -27.6163 9.93923e-017 -7.95139e-016 -7.95139e-016 -13.2425 -6.28758 8.94276 -32.0836 -38.8574 -17.8833 0.0126723 0.336748 -2.39919 
81.3134 81.5694 -91.1156 2.33539 -1.08268 5.27304 0.33766 -31.5568 1.98017 0.165436 30.1314 -0.260552 2.29853 10.4941 -6.68981 1.46605e-016 -5 -9.9772e-017 6.28634 11.549 1.07698 -0.597202 51.6836 0.752455 -3.14576 11.0698 -0.101947 2.08697e-016 -5 2.39453e-015 0.00605349 6.18681 2.04556 3.29296 -2.93845 -10.5669 1.98785e-016 0 -0 8.74033 1.63765 4.21271 6.57847 -10.7865 2.15932 -1.07956 -4.02297 -30.0238 1.98785e-016 0 -0 -11.6284 -4.51412 6.74546 -29.7756 -37.1773 -16.161 0.00309866 0.1989 -1.41667 
81.7047 82.535 -85.4388 4.24551 -2.04203 5.38913 -1.45063 -27.629 3.77992 0.195121 32.5823 -0.280175 2.36783 8.32359 -8.1929 -1.63377e-016 -5 4.9886e-017 3.87765 5.20223 -0.513101 -1.27435 64.5833 1.05299 -1.07245 13.165 -0.736031 6.38616e-016 -5 -1.7959e-015 -1.91415 7.80284 1.46304 3.40147 -3.33069 -9.37116 9.93923e-017 -7.95139e-016 -0 9.26822 0.59745 2.79342 7.35717 -11.9808 2.48519 -0.865757 -3.62899 -26.8184 9.93923e-017 -7.95139e-016 -0 -10.735 -3.32197 6.08867 -26.9844 -34.9508 -14.1325 0.000874437 -0.0350023 0.24864 
82.0093 83.213 -80.2414 5.74537 -2.35886 6.05315 -4.13815 -23.805 1.02033 0.200895 33.1087 -0.321951 1.74425 5.79444 -5.06657 -4.47266e-016 -5 -0 1.71778 -1.94348 -3.3259 -2.37975 73.406 2.19199 0.220244 7.42847 -5.87498 2.20524e-016 -5 2.4943e-016 -3.3451 8.40172 0.2544 2.72636 -3.63349 -8.91033 1.10348e-032 -7.95139e-016 7.95139e-016 10.0896 -0.909468 2.00814 7.38927 -12.0295 2.49876 -0.702988 -3.28804 -24.1209 1.10348e-032 -7.95139e-016 7.95139e-016 -9.95985 -1.88642 6.03136 -24.0198 -32.3342 -12.0526 0.0161637 -0.493329 3.5146 
81.9425 84.0328 -75.1483 5.93278 -2.30801 5.87609 -4.3618 -20.446 -0.577547 0.217734 34.5175 -0.379315 1.35289 2.04793 -2.67042 -6.46095e-017 -5 3.99088e-016 0.917822 -9.49434 -5.01434 -3.23971 76.9472 3.06454 0.417591 3.36932 -8.97381 4.14961e-016 -5 1.99544e-016 -3.234 8.51631 -0.1822 2.44579 -2.47365 -8.68701 -9.93923e-017 7.95139e-016 7.95139e-016 10.7325 -3.37297 -1.45648 7.75477 -12.5836 2.65662 -0.571033 -2.97582 -21.7039 -9.93923e-017 7.95139e-016 7.95139e-016 -9.33759 -0.00134183 5.85 -21.1002 -29.4832 -10.0912 0.0506013 -0.890577 6.35288 
81.7498 84.4214 -70.2188 6.84669 -2.1166 4.94738 -4.81345 -17.0626 -0.0146863 0.217174 34.6505 -0.412489 1.23837 -1.72293 -0.89158 -5.31744e-016 -5 -3.99088e-016 -0.626687 -17.3774 -5.90326 -3.25058 77.0607 3.08483 -0.21986 -0.484452 -9.31927 6.95656e-017 -5 7.98176e-016 -4.37074 8.56653 -0.376604 3.04153 -2.0118 -8.27549 7.95139e-016 0 7.95139e-016 11.5515 -4.75625 -5.78515 9.5615 -15.2522 3.47896 -0.416272 -2.55249 -18.49 7.95139e-016 0 7.95139e-016 -8.21228 1.95092 6.01195 -18.5802 -26.7895 -8.47836 0.103942 -1.28184 9.1637 
81.54 84.2447 -65.3982 8.25645 -1.54087 5.54081 -5.99987 -14.4926 0.223978 0.221386 35.0137 -0.420296 1.2461 -3.90283 -0.199313 -1.29219e-016 -5 7.98176e-016 -3.01582 -24.4961 -7.95469 -2.34821 73.4709 2.23122 -1.12291 -4.95217 -8.68112 -2.31585e-015 -5 7.98176e-016 -6.12263 8.48005 -2.18659 3.85925 -2.31196 -7.46543 -4.96962e-017 -3.18055e-015 -0 13.365 -5.3452 -14.189 12.6765 -19.5773 5.04974 -0.157507 -1.57921 -11.3134 -4.96962e-017 -3.18055e-015 -0 -6.52603 3.81991 5.11308 -16.8994 -24.8671 -7.44897 0.153211 -1.55634 11.1491 
